<?xml version="1.0" encoding="UTF-8" standalone="no"?>
<!-- Generator: Adobe Illustrator 16.0.4, SVG Export Plug-In . SVG Version: 6.00 Build 0)  -->

<svg
   xmlns:dc="http://purl.org/dc/elements/1.1/"
   xmlns:cc="http://creativecommons.org/ns#"
   xmlns:rdf="http://www.w3.org/1999/02/22-rdf-syntax-ns#"
   xmlns:svg="http://www.w3.org/2000/svg"
   xmlns="http://www.w3.org/2000/svg"
   xmlns:sodipodi="http://sodipodi.sourceforge.net/DTD/sodipodi-0.dtd"
   xmlns:inkscape="http://www.inkscape.org/namespaces/inkscape"
   version="1.1"
   id="Capa_1"
   x="0px"
   y="0px"
   width="22.334003"
   height="60"
   viewBox="0 0 22.334003 60.000002"
   enable-background="new 0 0 185 497"
   xml:space="preserve"
   inkscape:version="0.48.5 r10040"
   sodipodi:docname="me.svg"><metadata
     id="metadata3032"><rdf:RDF><cc:Work
         rdf:about=""><dc:format>image/svg+xml</dc:format><dc:type
           rdf:resource="http://purl.org/dc/dcmitype/StillImage" /><dc:title></dc:title></cc:Work></rdf:RDF></metadata><defs
     id="defs3030" /><sodipodi:namedview
     pagecolor="#ffffff"
     bordercolor="#666666"
     borderopacity="1"
     objecttolerance="10"
     gridtolerance="10"
     guidetolerance="10"
     inkscape:pageopacity="0"
     inkscape:pageshadow="2"
     inkscape:window-width="1598"
     inkscape:window-height="874"
     id="namedview3028"
     showgrid="false"
     fit-margin-top="0"
     fit-margin-left="0"
     fit-margin-right="0"
     fit-margin-bottom="0"
     inkscape:zoom="0.69315895"
     inkscape:cx="33.357265"
     inkscape:cy="130.71874"
     inkscape:window-x="0"
     inkscape:window-y="24"
     inkscape:window-maximized="0"
     inkscape:current-layer="Capa_1" /><path
     d="m 4.9496979,57.464787 c 0,1.690148 0.8249097,2.535215 2.4748495,2.535215 1.649939,0 2.4748491,-0.845067 2.4748491,-2.535215 V 34.044265 h 2.5352105 v 23.420522 c 0,1.690148 0.82491,2.535215 2.474849,2.535215 1.64994,0 2.47485,-0.845067 2.47485,-2.535215 V 17.987929 h 1.207244 v 14.607645 c 0,0.885392 0.30181,1.529214 0.905432,1.931587 0.603622,0.402377 1.227405,0.402377 1.871228,0 0.643822,-0.402373 0.965794,-1.046316 0.965794,-1.931587 V 17.505027 c 0,-1.690139 -0.56342,-3.07847 -1.69014,-4.164988 C 19.517143,12.253521 17.987928,11.71026 16.056338,11.71026 H 6.2776659 c -1.8510665,0 -3.360121,0.523098 -4.5271633,1.569419 C 0.58346028,14.325996 -5.1491079e-7,15.694164 -5.1491079e-7,17.384303 v 15.331996 c 0,0.804868 0.32197184491079,1.368167 0.96579489491079,1.690139 0.64382292,0.321968 1.26760562,0.321968 1.87122752,0 0.6036217,-0.321972 0.9054326,-0.885391 0.9054326,-1.690139 v -14.72837 h 1.2072434 v 39.476858 z"
     id="path3024"
     style="fill:#000000"
     inkscape:connector-curvature="0" /><path
     d="m 5.9154927,5.130783 c 0,1.408494 0.5030583,2.615736 1.5090547,3.621731 1.005996,1.005995 2.213239,1.509055 3.6217296,1.509055 1.408491,0 2.595574,-0.50306 3.561369,-1.509055 0.965795,-1.005995 1.448692,-2.213237 1.448692,-3.621731 0,-1.40849 -0.482897,-2.615733 -1.448692,-3.621732 C 13.641851,0.503056 12.454768,0 11.046277,0 9.6377864,0 8.4305434,0.503056 7.4245474,1.509051 6.418551,2.51505 5.9154927,3.722293 5.9154927,5.130783 z"
     id="path3026"
     style="fill:#000000"
     inkscape:connector-curvature="0" /></svg>