<?xml version="1.0" encoding="UTF-8" standalone="no"?>
<!-- Generator: Adobe Illustrator 16.0.4, SVG Export Plug-In . SVG Version: 6.00 Build 0)  -->

<svg
   xmlns:dc="http://purl.org/dc/elements/1.1/"
   xmlns:cc="http://creativecommons.org/ns#"
   xmlns:rdf="http://www.w3.org/1999/02/22-rdf-syntax-ns#"
   xmlns:svg="http://www.w3.org/2000/svg"
   xmlns="http://www.w3.org/2000/svg"
   xmlns:sodipodi="http://sodipodi.sourceforge.net/DTD/sodipodi-0.dtd"
   xmlns:inkscape="http://www.inkscape.org/namespaces/inkscape"
   version="1.1"
   id="Capa_1"
   x="0px"
   y="0px"
   width="25.945px"
   height="25.527px"
   viewBox="0 0 25.945 25.527"
   enable-background="new 0 0 25.945 25.527"
   xml:space="preserve"
   inkscape:version="0.48.5 r10040"
   sodipodi:docname="tiles.svg"><metadata
     id="metadata4029"><rdf:RDF><cc:Work
         rdf:about=""><dc:format>image/svg+xml</dc:format><dc:type
           rdf:resource="http://purl.org/dc/dcmitype/StillImage" /></cc:Work></rdf:RDF></metadata><defs
     id="defs4027" /><sodipodi:namedview
     pagecolor="#ffffff"
     bordercolor="#666666"
     borderopacity="1"
     objecttolerance="10"
     gridtolerance="10"
     guidetolerance="10"
     inkscape:pageopacity="0"
     inkscape:pageshadow="2"
     inkscape:window-width="1598"
     inkscape:window-height="874"
     id="namedview4025"
     showgrid="false"
     inkscape:zoom="9.2451129"
     inkscape:cx="12.9725"
     inkscape:cy="12.7635"
     inkscape:window-x="0"
     inkscape:window-y="24"
     inkscape:window-maximized="0"
     inkscape:current-layer="Capa_1" /><g
     id="g4005"
     style="fill:#ffffff"><path
       d="M6.333,0H0.991C0.443,0,0,0.443,0,0.991v5.343c0,0.546,0.443,0.99,0.991,0.99h5.342c0.547,0,0.99-0.444,0.99-0.99V0.991   C7.323,0.443,6.88,0,6.333,0z"
       id="path4007"
       style="fill:#ffffff" /><path
       d="M15.539,0h-5.343c-0.546,0-0.99,0.443-0.99,0.991v5.343c0,0.546,0.444,0.99,0.99,0.99h5.343   c0.548,0,0.991-0.444,0.991-0.99V0.991C16.53,0.443,16.087,0,15.539,0z"
       id="path4009"
       style="fill:#ffffff" /><path
       d="M24.955,0h-5.342c-0.548,0-0.991,0.443-0.991,0.991v5.343c0,0.546,0.443,0.99,0.991,0.99h5.342   c0.547,0,0.99-0.444,0.99-0.99V0.991C25.945,0.444,25.502,0,24.955,0z"
       id="path4011"
       style="fill:#ffffff" /><path
       d="M6.333,8.997H0.991C0.443,8.998,0,9.44,0,9.987v5.343c0,0.547,0.443,0.99,0.991,0.99h5.342c0.547,0,0.99-0.443,0.99-0.99   V9.987C7.323,9.44,6.88,8.997,6.333,8.997z"
       id="path4013"
       style="fill:#ffffff" /><path
       d="M15.539,8.997h-5.343c-0.546,0-0.99,0.443-0.99,0.99v5.343c0,0.547,0.444,0.99,0.99,0.99h5.343   c0.548,0,0.991-0.443,0.991-0.99V9.987C16.53,9.44,16.087,8.997,15.539,8.997z"
       id="path4015"
       style="fill:#ffffff" /><path
       d="M24.955,8.997h-5.342c-0.548,0-0.991,0.443-0.991,0.99v5.343c0,0.547,0.443,0.99,0.991,0.99h5.342   c0.547,0,0.99-0.443,0.99-0.99V9.987C25.945,9.44,25.502,8.997,24.955,8.997z"
       id="path4017"
       style="fill:#ffffff" /><path
       d="M6.333,18.203H0.991C0.443,18.203,0,18.647,0,19.193v5.343c0,0.547,0.443,0.991,0.991,0.991h5.342   c0.547,0,0.99-0.444,0.99-0.991v-5.343C7.323,18.647,6.88,18.203,6.333,18.203z"
       id="path4019"
       style="fill:#ffffff" /><path
       d="M15.539,18.203h-5.343c-0.546,0-0.99,0.444-0.99,0.99v5.343c0,0.547,0.444,0.991,0.99,0.991h5.343   c0.548,0,0.991-0.444,0.991-0.991v-5.343C16.53,18.647,16.087,18.203,15.539,18.203z"
       id="path4021"
       style="fill:#ffffff" /><path
       d="M24.955,18.203h-5.342c-0.548,0-0.991,0.444-0.991,0.99v5.343c0,0.547,0.443,0.991,0.991,0.991h5.342   c0.547,0,0.99-0.444,0.99-0.991v-5.343C25.945,18.647,25.502,18.203,24.955,18.203z"
       id="path4023"
       style="fill:#ffffff" /></g></svg>